<svg version="1.1" id="Layer_1" xmlns="http://www.w3.org/2000/svg" xmlns:xlink="http://www.w3.org/1999/xlink" x="0px" y="0px"
	 width="100%" viewBox="0 0 1024 1024" enable-background="new 0 0 1024 1024" xml:space="preserve">
<path fill="#8CA9FF" opacity="1"
	d="
M422.275604,408.298035 
	C449.702789,379.094482 483.443420,365.516907 522.694763,369.024261 
	C583.427490,374.451111 625.350098,418.057007 633.258118,473.314819 
	C637.281372,501.427521 632.079712,528.060059 617.388672,552.511963 
	C608.341553,567.570007 588.223877,571.299316 575.382629,560.650085 
	C569.136353,555.470154 565.807617,548.714294 565.719849,540.606262 
	C565.564758,526.274963 565.639771,511.941223 565.603699,497.608582 
	C565.586609,490.839539 561.728088,485.554535 554.741943,482.735382 
	C552.518250,484.246674 553.258484,486.622162 553.252930,488.648346 
	C553.206421,505.647522 553.191772,522.647400 553.300354,539.646240 
	C553.442444,561.887268 569.701782,578.366089 591.939880,578.977356 
	C593.382568,579.016968 594.908936,578.576050 596.210815,579.373108 
	C596.871277,581.207703 595.538269,581.962280 594.620239,582.810242 
	C584.613953,592.052063 573.299988,599.257874 560.864136,604.818665 
	C557.279724,606.421509 555.184937,605.853699 553.074280,602.529419 
	C546.556519,592.263855 539.799866,582.149414 533.089050,572.007385 
	C532.021484,570.393921 531.294861,568.393494 529.189392,567.722473 
	C521.792358,574.047302 521.230286,577.203796 526.200745,584.824768 
	C530.660645,591.662903 535.173157,598.466614 539.656372,605.289490 
	C540.649414,606.800720 541.805237,608.242676 542.165161,610.967102 
	C522.191101,616.637268 502.495575,616.349243 482.831268,610.951355 
	C482.611145,608.254028 484.053864,607.152466 484.934967,605.800049 
	C499.575928,583.327576 514.639221,561.113464 526.776611,537.115479 
	C533.645569,523.534302 537.881653,509.417572 537.010986,493.914093 
	C536.479187,484.445160 536.966858,474.920532 536.933594,465.421143 
	C536.921509,461.978851 530.581177,453.574677 527.394470,452.920746 
	C524.218506,452.269012 524.400757,454.801971 524.389954,456.719208 
	C524.352356,463.384735 523.822510,470.123779 524.594177,476.704254 
	C527.795959,504.008453 520.179993,528.290344 505.508301,551.036743 
	C494.491791,568.116211 483.429779,585.162170 472.294861,602.163757 
	C469.878937,605.852478 467.621582,606.453125 463.710266,604.690613 
	C427.757996,588.490356 404.863831,560.972778 394.950439,523.204956 
	C383.738464,480.490051 393.426605,442.148865 422.275604,408.298035 
M447.053772,481.549683 
	C460.394653,468.561615 472.778748,454.579803 486.747925,441.923187 
	C488.719757,444.728790 488.155579,446.957672 488.162720,449.056366 
	C488.227051,468.047699 488.122772,487.040344 488.317841,506.030029 
	C488.377960,511.882141 489.708344,517.607605 491.928375,524.456055 
	C496.508209,516.718689 500.999146,510.926544 500.809387,502.449463 
	C500.332214,481.135864 500.960785,459.797974 500.515930,438.482971 
	C500.349182,430.492767 501.277161,423.693024 508.513916,419.094788 
	C508.923492,418.834503 509.234375,418.403351 509.555267,418.021545 
	C511.636505,415.545166 513.526978,415.724548 515.767517,418.032562 
	C525.859192,428.427979 536.068848,438.708862 546.207214,449.059204 
	C563.341919,466.552216 580.419861,484.101135 597.602417,501.547028 
	C601.767822,505.776306 602.675049,505.440918 607.028015,501.555084 
	C610.704529,498.273010 609.636536,495.965149 606.661865,492.949921 
	C576.598999,462.477783 546.598938,431.943298 516.693665,401.316620 
	C513.763733,398.315979 511.845428,398.393188 508.985443,401.305969 
	C494.056061,416.510986 478.943115,431.535492 463.960968,446.689026 
	C448.622192,462.203125 433.377777,477.810608 418.048615,493.334290 
	C415.545013,495.869659 414.641693,498.103973 417.909882,500.767273 
	C420.748627,503.080566 423.067200,506.226929 426.980865,502.057190 
	C433.362335,495.258118 440.012756,488.711487 447.053772,481.549683 
M460.020935,533.533020 
	C460.074615,542.536987 460.160034,542.361877 465.898193,542.754700 
	C470.820648,543.091614 472.528351,540.823242 472.534943,536.396790 
	C472.559662,519.765198 472.600403,503.133606 472.595764,486.502014 
	C472.595306,484.877228 472.633545,483.143250 470.528046,481.614075 
	C465.808411,485.835480 459.474365,488.837555 459.491150,496.698334 
	C459.516663,508.664917 458.914368,520.642395 460.020935,533.533020 
z"/>
</svg>